<?xml version="1.0" standalone="no"?>
<!DOCTYPE svg PUBLIC "-//W3C//DTD SVG 20010904//EN"
 "http://www.w3.org/TR/2001/REC-SVG-20010904/DTD/svg10.dtd">
<svg version="1.0" xmlns="http://www.w3.org/2000/svg"
 width="512.000000pt" height="512.000000pt" viewBox="0 0 512.000000 512.000000"
 preserveAspectRatio="xMidYMid meet">
<metadata>
Created by potrace 1.16, written by Peter Selinger 2001-2019
</metadata>
<g transform="translate(0.000000,512.000000) scale(0.100000,-0.100000)"
fill="#000000" stroke="none">
<path d="M401 5104 c-179 -48 -339 -209 -386 -389 -12 -49 -15 -135 -15 -490
0 -404 1 -432 19 -459 31 -46 69 -66 131 -66 59 0 98 19 128 61 15 21 18 70
22 439 5 368 7 419 23 454 29 66 64 103 124 133 l58 28 415 5 c369 4 418 7
439 22 42 30 61 69 61 128 0 62 -20 100 -66 131 -27 18 -54 19 -464 18 -347 0
-446 -3 -489 -15z"/>
<path d="M3766 5101 c-46 -31 -66 -69 -66 -131 0 -59 19 -98 61 -128 21 -15
70 -18 439 -22 369 -5 419 -7 454 -23 66 -30 103 -64 133 -124 l28 -58 5 -415
c4 -369 7 -418 22 -439 30 -42 69 -61 128 -61 62 0 100 20 131 66 18 27 19 55
19 459 0 475 -2 494 -63 609 -41 78 -145 182 -223 223 -115 61 -134 63 -609
63 -404 0 -432 -1 -459 -19z"/>
<path d="M1077 4296 c-115 -47 -183 -112 -234 -222 l-28 -59 -3 -320 c-3 -320
-3 -321 20 -354 61 -90 188 -93 253 -7 19 26 20 46 25 314 7 396 -24 365 372
372 268 5 288 6 314 25 85 64 83 192 -6 253 -32 22 -38 22 -344 22 -305 0
-312 -1 -369 -24z"/>
<path d="M3331 4298 c-90 -61 -93 -188 -7 -253 26 -19 46 -20 314 -25 396 -7
365 24 372 -372 5 -268 6 -288 25 -314 65 -86 192 -83 253 7 23 33 23 34 20
354 l-3 320 -32 67 c-41 88 -113 160 -201 201 l-67 32 -320 3 c-320 3 -321 3
-354 -20z"/>
<path d="M76 2691 c-46 -31 -66 -69 -66 -131 0 -62 20 -100 66 -131 28 -18 96
-19 2484 -19 2388 0 2456 1 2484 19 46 31 66 69 66 131 0 62 -20 100 -66 131
-28 18 -96 19 -2484 19 -2388 0 -2456 -1 -2484 -19z"/>
<path d="M890 1851 c-19 -10 -45 -33 -58 -52 -23 -33 -23 -34 -20 -354 l3
-320 32 -67 c41 -88 113 -160 201 -201 l67 -32 320 -3 c320 -3 321 -3 354 20
90 61 93 188 7 253 -26 19 -46 20 -309 25 -302 6 -320 9 -354 59 -16 23 -19
60 -23 313 -5 268 -6 288 -25 314 -46 61 -130 80 -195 45z"/>
<path d="M4090 1851 c-75 -40 -74 -39 -80 -359 -5 -309 -6 -311 -62 -350 -20
-15 -64 -18 -310 -22 -268 -5 -288 -6 -314 -25 -86 -65 -83 -192 7 -253 33
-23 34 -23 354 -20 l320 3 67 32 c88 41 160 113 201 201 l32 67 3 320 c3 320
3 321 -20 354 -45 67 -130 89 -198 52z"/>
<path d="M66 1401 c-15 -10 -37 -32 -47 -47 -18 -27 -19 -55 -19 -459 0 -475
2 -494 63 -609 41 -78 145 -182 223 -223 115 -61 134 -63 609 -63 404 0 432 1
459 19 46 31 66 69 66 131 0 59 -19 98 -61 128 -21 15 -70 18 -439 22 l-415 5
-58 28 c-60 30 -95 67 -124 133 -16 35 -18 86 -23 454 -5 455 -3 439 -67 481
-38 26 -128 25 -167 0z"/>
<path d="M4887 1401 c-64 -42 -62 -26 -67 -481 -5 -368 -7 -419 -23 -454 -29
-66 -64 -103 -124 -133 l-58 -28 -415 -5 c-369 -4 -418 -7 -439 -22 -42 -30
-61 -69 -61 -128 0 -62 20 -100 66 -131 27 -18 55 -19 459 -19 475 0 494 2
609 63 78 41 182 145 223 223 61 115 63 134 63 609 0 404 -1 432 -19 459 -10
15 -32 37 -47 47 -39 25 -129 26 -167 0z"/>
</g>
</svg>
